<svg xmlns="http://www.w3.org/2000/svg" width="108" height="108" viewBox="18 18 72 72"><defs><linearGradient id="background" x1="0" y1="0" x2="1" y2="1"><stop offset="0" stop-color="#FFF7F0" stop-opacity="1"/><stop offset="1" stop-color="#FFE4DD" stop-opacity="1"/></linearGradient><linearGradient id="left" x1="0" y1="0" x2="1" y2="1"><stop offset="0" stop-color="#FFC178" stop-opacity="1"/><stop offset="1" stop-color="#FF7D75" stop-opacity="1"/></linearGradient><linearGradient id="right" x1="0" y1="0" x2="1" y2="1"><stop offset="0" stop-color="#C5A4FB" stop-opacity="1"/><stop offset="1" stop-color="#8C66E4" stop-opacity="1"/></linearGradient><linearGradient id="bottom" x1="0" y1="0" x2="1" y2="1"><stop offset="0" stop-color="#FCAAAD" stop-opacity="1"/><stop offset="1" stop-color="#AF86E6" stop-opacity="1"/></linearGradient><clipPath id="clip"><rect x="18" y="18" width="72" height="72" rx="17"/></clipPath></defs><g clip-path="url(#clip)"><rect width="108" height="108" fill="url(#background)"/>
    <g transform="rotate(-9 54 54)">
    <path d="M52 27 Q54 24 56 28 L79 71 Q81 75 77 75 H30 Q26 75 29 71 Z" fill="url(#left)"/>
    <path d="M54 27 L54 57 L80 73 Q80 75 77 75 Z" fill="url(#right)"/>
    <path d="M28 74 L54 57 L80 74 Q80 75 77 75 H30 Z" fill="url(#bottom)"/>
    <path d="M54 28 L54 57 L29 74" fill="none" stroke="#FFF2E5" stroke-width="1.15" stroke-opacity="0.8" stroke-linecap="round" stroke-linejoin="round"/>
    </g>
  </g></svg>