<svg xmlns="http://www.w3.org/2000/svg" width="108" height="108" viewBox="18 18 72 72"><defs><linearGradient id="background" x1="0" y1="0" x2="1" y2="1"><stop offset="0" stop-color="#342557" stop-opacity="1"/><stop offset="1" stop-color="#1A1C39" stop-opacity="1"/></linearGradient><linearGradient id="tl" x1="0" y1="0" x2="1" y2="1"><stop offset="0" stop-color="#DEFFFB" stop-opacity="1"/><stop offset="1" stop-color="#7CF3DC" stop-opacity="1"/></linearGradient><linearGradient id="tr" x1="0" y1="0" x2="1" y2="1"><stop offset="0" stop-color="#B9B0FF" stop-opacity="1"/><stop offset="1" stop-color="#AB83F5" stop-opacity="1"/></linearGradient><linearGradient id="bl" x1="0" y1="0" x2="1" y2="1"><stop offset="0" stop-color="#67D7EE" stop-opacity="1"/><stop offset="1" stop-color="#5793ED" stop-opacity="1"/></linearGradient><linearGradient id="br" x1="0" y1="0" x2="1" y2="1"><stop offset="0" stop-color="#B59AF6" stop-opacity="1"/><stop offset="1" stop-color="#7471E2" stop-opacity="1"/></linearGradient><clipPath id="clip"><rect x="18" y="18" width="72" height="72" rx="17"/></clipPath></defs><g clip-path="url(#clip)"><rect width="108" height="108" fill="url(#background)"/>
    <path d="M54 25 L29 53 L54 54 Z" fill="url(#tl)"/>
    <path d="M54 25 L79 53 L54 54 Z" fill="url(#tr)"/>
    <path d="M29 53 L54 81 L54 54 Z" fill="url(#bl)"/>
    <path d="M79 53 L54 81 L54 54 Z" fill="url(#br)"/>
    <path d="M54 25 L54 81 M29 53 L54 54 L79 53" fill="none" stroke="#F1FFFF" stroke-width="0.9" stroke-opacity="0.62" stroke-linecap="round" stroke-linejoin="round"/>
  </g></svg>